<svg version="1.1" id="Layer_1" xmlns="http://www.w3.org/2000/svg"
    xmlns:xlink="http://www.w3.org/1999/xlink" x="0px" y="0px" width="100%" viewBox="0 0 512 512"
    enable-background="new 0 0 512 512" xml:space="preserve">
<path fill="#F2A242" opacity="1.000000" stroke="none" d="
M301.000000,513.000000 
	C200.691025,513.000000 100.882042,513.000000 1.036533,513.000000 
	C1.036533,342.399323 1.036533,171.798660 1.036533,1.098988 
	C171.558990,1.098988 342.118042,1.098988 512.838562,1.098988 
	C512.838562,171.666550 512.838562,342.333252 512.838562,513.000000 
	C442.465302,513.000000 371.982635,513.000000 301.000000,513.000000 
M387.987091,418.386963 
	C388.098480,418.414368 388.209900,418.441772 388.321289,418.469177 
	C388.229004,418.300323 388.136719,418.131500 388.148071,417.217224 
	C389.057251,412.573456 392.806793,413.215057 396.035217,413.073120 
	C401.851257,412.817383 403.738342,411.146851 404.974915,405.738159 
	C405.466003,403.590057 406.433563,401.295776 407.860199,399.656219 
	C421.543488,383.930298 432.325745,366.414948 440.597748,347.323364 
	C442.481934,342.974762 444.197510,338.553101 445.990723,334.165070 
	C445.441284,333.789612 444.891876,333.414154 444.342468,333.038696 
	C439.974884,338.153473 435.636719,343.293884 431.219818,348.365692 
	C430.060028,349.697449 428.790863,351.020447 427.331848,351.984070 
	C425.332886,353.304291 423.104706,354.277557 420.970093,355.401917 
	C421.178619,355.823883 420.773438,355.004059 420.207550,353.859070 
	C417.999878,355.540924 416.059387,357.088989 414.048950,358.540192 
	C391.496826,374.819733 368.990540,391.163757 346.339722,407.304962 
	C339.478973,412.194031 339.292145,411.931854 332.617676,407.268860 
	C329.558014,408.290894 326.549408,415.124786 323.431152,407.278351 
	C323.285248,406.911163 322.127625,406.612915 321.606476,406.784546 
	C319.097351,407.610901 316.645020,408.609589 313.673645,409.736267 
	C313.675781,409.737915 312.969452,409.195007 312.946350,409.177246 
	C310.086548,411.471558 307.683563,413.399323 305.258484,415.344849 
	C303.577362,413.277557 302.159546,411.534058 301.172211,410.319916 
	C298.872406,413.920624 296.996826,417.574951 294.415588,420.633759 
	C292.824707,422.518982 290.315155,424.240265 287.944031,424.743134 
	C280.309387,426.362335 272.558899,427.461060 264.825989,428.571960 
	C263.089172,428.821442 261.226624,428.404755 259.448578,428.125336 
	C244.169830,425.724457 228.954071,422.797943 213.605423,421.005035 
	C200.491394,419.473145 188.360779,416.012360 177.603165,408.674164 
	C178.977722,406.525818 180.115784,404.747101 181.864426,402.014069 
	C178.180939,403.045105 175.863785,404.057800 173.483368,404.238861 
	C171.740463,404.371429 169.378326,403.973602 168.205383,402.854797 
	C148.556747,384.112671 129.043900,365.228027 109.519363,346.355927 
	C101.844421,338.937439 96.248161,330.210052 92.685814,320.104340 
	C90.814224,314.795013 88.405579,309.674988 86.053795,304.023315 
	C82.349930,307.040253 80.723045,304.990906 79.463921,302.005066 
	C77.546669,297.458527 80.683868,296.369629 84.230850,295.669067 
	C83.231400,288.766266 82.502403,282.140991 81.263908,275.612366 
	C79.951714,268.695251 79.789970,262.193939 83.789459,255.895142 
	C85.227020,253.631119 85.685997,250.567719 86.005753,247.801422 
	C87.822365,232.085648 89.093498,216.298477 91.259399,200.633652 
	C93.672180,183.183289 100.399391,167.304367 110.808609,153.039902 
	C123.390236,135.798416 138.940125,121.321846 155.405228,108.095085 
	C165.566437,99.932365 177.698120,94.194969 189.051514,87.550438 
	C205.770508,77.765694 223.435776,70.657097 243.058289,69.625443 
	C249.695389,69.276497 256.371674,69.575851 262.995392,69.098427 
	C268.825592,68.678192 270.793427,66.190269 270.967407,60.313976 
	C271.025543,58.350117 270.976624,56.383091 270.976624,55.738834 
	C266.747711,53.198944 263.658051,51.063351 260.322174,49.430851 
	C257.782715,48.188107 254.349701,46.124767 252.313065,46.935547 
	C240.129837,51.785702 228.234787,57.360138 216.248199,62.703106 
	C215.304077,63.123943 214.398758,63.631817 213.354507,64.160446 
	C213.151901,61.205238 212.979660,58.692730 212.807404,56.180222 
	C212.315979,55.908585 211.824570,55.636948 211.333145,55.365311 
	C207.953842,58.384918 204.763916,61.661800 201.130646,64.336403 
	C198.579742,66.214241 195.278427,68.716393 192.565186,68.441643 
	C181.604141,67.331673 173.837280,72.077499 169.082626,81.070625 
	C166.268448,86.393456 163.004608,87.319206 157.963623,86.287071 
	C150.703308,84.800529 144.730774,86.838722 139.421967,92.179855 
	C129.323471,102.339821 118.782715,112.059517 108.645660,122.182388 
	C106.615974,124.209244 105.600258,127.238838 104.060791,129.771912 
	C100.906738,134.961716 98.216133,140.539841 94.399925,145.191147 
	C90.416183,150.046631 85.401047,154.074844 80.717026,158.332947 
	C70.620537,167.511337 62.772644,178.224335 59.839195,191.697327 
	C56.761681,205.832001 54.616577,220.167358 51.807285,234.364227 
	C51.009113,238.397812 51.699799,241.724030 53.630516,245.281830 
	C60.499252,257.939117 65.559418,271.275085 68.302238,285.485901 
	C69.165985,289.961060 69.566513,293.536804 62.185585,293.661560 
	C63.614555,300.726807 64.001701,307.513763 66.386879,313.505310 
	C73.097443,330.362274 80.493774,346.952911 87.898422,363.524017 
	C91.421669,371.408844 91.778381,380.802246 100.261635,386.487762 
	C102.816292,388.199890 102.940170,393.723663 103.921860,397.566711 
	C108.772469,416.555145 118.951691,424.726074 138.323700,424.748077 
	C143.907257,424.754425 148.715591,426.203674 153.053223,429.819733 
	C158.890228,434.685822 165.861969,436.695129 173.385483,437.096130 
	C175.332184,437.199921 177.485458,437.326080 179.149323,438.196289 
	C188.886932,443.288940 198.473145,448.670410 208.192230,453.799530 
	C210.523621,455.029877 213.165329,455.672211 216.040863,456.722473 
	C216.193237,457.527954 216.463898,458.958588 216.771454,460.584259 
	C217.977661,460.503876 218.942947,460.468842 219.901871,460.371307 
	C235.639938,458.770660 251.354630,456.622314 267.211395,459.122925 
	C274.191254,460.223633 281.024506,461.526581 288.317505,461.315491 
	C293.827118,461.156036 299.437439,464.969238 305.028809,466.941010 
	C307.983948,467.983154 311.402527,470.558197 312.444305,464.642914 
	C312.626770,463.606873 314.437256,462.485046 315.710022,462.085938 
	C319.034485,461.043488 322.529572,460.547760 325.859436,459.519318 
	C329.462708,458.406433 331.871918,459.623779 334.047760,462.473053 
	C335.332031,464.154785 337.176117,465.409058 338.730713,466.821320 
	C339.999054,462.914734 340.132019,458.841980 342.213226,457.109161 
	C344.362091,455.320038 348.405273,455.806152 351.115417,455.376801 
	C352.231659,452.052032 352.590393,448.495819 354.427734,446.050659 
	C357.808563,441.551392 361.963959,437.610413 365.969269,433.609741 
	C372.049896,427.536194 372.227478,427.600891 378.512573,433.135345 
	C378.772308,433.364044 379.311798,433.274994 381.259003,433.555786 
	C378.468384,428.754669 376.239685,424.920349 373.220490,419.726013 
	C378.661957,419.123657 383.283936,418.612000 387.987091,418.386963 
M451.035858,179.336487 
	C450.979492,171.122208 448.710907,163.729797 443.696106,157.054611 
	C440.406982,152.676453 437.818939,147.773438 434.891632,143.121368 
	C425.490234,128.180618 417.630829,111.934044 406.346588,98.583107 
	C382.478424,70.343491 351.323456,56.875259 313.845154,59.939098 
	C312.466461,60.051807 310.642029,60.647900 309.917419,61.658424 
	C308.098022,64.195717 306.020477,64.546707 303.168884,64.008049 
	C301.081177,63.613689 298.852356,64.006912 296.687714,63.970760 
	C292.466522,63.900272 289.070831,65.422356 287.448761,69.445839 
	C285.828888,73.463852 287.279388,76.925201 290.239990,79.859634 
	C296.974731,86.534836 305.388245,89.102501 314.547058,90.237679 
	C318.058563,90.672913 321.944733,91.398682 324.799469,93.290741 
	C346.032379,107.363449 367.233551,121.501633 388.025391,136.211884 
	C394.626190,140.881927 400.446899,143.669968 407.805389,138.728027 
	C407.971741,138.616287 408.393188,138.884354 408.392853,138.884262 
	C409.308411,143.756592 409.700043,148.633911 411.196045,153.144989 
	C413.419983,159.851303 414.806000,167.362473 421.487762,171.467957 
	C430.600922,177.067368 432.335236,185.080307 430.269012,194.810120 
	C429.857910,196.745941 429.779053,199.402695 430.787872,200.879181 
	C435.629120,207.964691 440.922577,214.740021 445.988495,221.674377 
	C446.911072,222.937225 448.040009,224.377213 448.179749,225.821915 
	C448.581146,229.971588 449.868042,232.250275 454.526581,229.810760 
	C453.911163,237.873886 453.318848,245.634262 452.726532,253.394653 
	C453.169098,253.439484 453.611694,253.484299 454.054291,253.529129 
	C456.489288,241.201065 458.924286,228.873001 461.509033,215.786697 
	C459.285706,218.193039 457.530304,220.092911 455.512634,222.276657 
	C453.989624,207.653397 452.561218,193.938644 451.035858,179.336487 
M247.487305,257.130554 
	C251.935165,257.016418 256.383026,256.902313 260.830902,256.788177 
	C260.827637,255.905533 260.824371,255.022888 260.821136,254.140244 
	C252.054092,254.070877 243.287186,253.973236 234.520020,253.939926 
	C225.356827,253.905090 216.193405,253.932144 207.030075,253.932144 
	C198.186203,253.932144 189.342331,253.932144 179.280563,253.932144 
	C185.207581,245.848419 190.379868,239.126022 195.155624,232.132843 
	C197.364349,228.898590 199.800430,227.580673 203.778214,227.606583 
	C229.601028,227.774765 255.425476,227.686661 281.249390,227.706848 
	C282.982361,227.708206 284.715210,227.909317 287.651184,228.092667 
	C280.386719,238.000458 273.800018,246.983795 267.213348,255.967148 
	C269.011475,256.459106 270.534821,256.240753 271.485168,255.385590 
	C272.819824,254.184601 273.725891,252.508392 274.820251,251.039139 
	C279.427368,244.853760 284.036285,238.669739 289.463165,231.386627 
	C289.463165,255.784866 289.463165,278.620056 289.463165,301.971008 
	C287.261475,301.971008 285.462891,301.970947 283.664307,301.971008 
	C269.502808,301.971436 255.341125,301.938629 241.180054,302.017334 
	C239.531891,302.026489 237.887131,302.652924 236.240799,302.993164 
	C236.306259,303.538452 236.371719,304.083710 236.437180,304.628998 
	C237.830795,304.854767 239.223999,305.274597 240.618057,305.277405 
	C265.108826,305.327057 289.599823,305.293701 314.090485,305.374603 
	C317.272736,305.385101 318.618866,304.214203 318.575806,300.997192 
	C318.473175,293.334778 318.588501,285.669464 318.490265,278.006927 
	C318.473969,276.736023 317.823822,275.473236 317.466583,274.206696 
	C316.961121,274.233215 316.455688,274.259705 315.950226,274.286194 
	C315.667114,275.908936 315.165710,277.528168 315.139648,279.154999 
	C315.040863,285.317871 314.972168,291.486694 315.144897,297.646179 
	C315.233795,300.815491 314.263916,302.196320 310.904816,302.021423 
	C306.584839,301.796509 302.226776,301.728485 297.917511,302.040222 
	C293.933411,302.328430 292.795013,300.860535 292.827484,296.957153 
	C292.992493,277.132416 292.896820,257.305603 292.920410,237.479507 
	C292.921875,236.256638 293.162384,235.034058 293.441742,232.392334 
	C298.705048,240.265915 303.060547,247.091263 307.794006,253.643600 
	C308.969360,255.270615 311.325012,256.915558 313.211700,257.005310 
	C320.792999,257.365845 328.403503,257.144348 336.002380,257.064026 
	C336.898682,257.054535 337.790131,256.588684 339.047028,256.231049 
	C338.486664,254.836624 338.235443,253.706024 337.638458,252.804337 
	C331.938049,244.194794 326.340820,235.507080 320.296173,227.143784 
	C319.132202,225.533295 316.151245,224.461288 314.002960,224.452164 
	C276.517303,224.292908 239.030457,224.275406 201.545319,224.488129 
	C199.180771,224.501541 196.085709,226.063354 194.600052,227.920456 
	C188.466370,235.587738 182.790665,243.623795 177.028656,251.583679 
	C176.048370,252.937912 175.469315,254.582596 174.185410,257.119659 
	C180.596039,257.119659 185.889038,257.360107 191.148285,257.042175 
	C195.222595,256.795868 196.238174,258.409302 196.182983,262.217621 
	C195.999466,274.876984 196.237442,287.542511 196.045380,300.201630 
	C195.985550,304.145233 197.359985,305.574585 201.243881,305.394379 
	C206.065048,305.170624 210.905960,305.406860 215.735138,305.300232 
	C217.176804,305.268372 218.607773,304.752930 220.043640,304.459045 
	C220.042587,303.907654 220.041519,303.356262 220.040466,302.804840 
	C218.618668,302.527771 217.202682,302.053925 215.773926,302.011597 
	C211.945282,301.898285 208.100174,301.788422 204.282425,302.020203 
	C200.641602,302.241241 199.238312,300.960205 199.292923,297.203125 
	C199.462402,285.543182 199.481674,273.877014 199.282516,262.218018 
	C199.214767,258.252594 200.635635,257.021088 204.508179,257.067810 
	C218.501022,257.236572 232.497162,257.132568 247.487305,257.130554 
M255.451248,170.718445 
	C255.659149,168.868652 255.867050,167.018845 256.128326,164.694077 
	C259.495941,166.291199 262.116516,167.534042 265.557587,169.166000 
	C263.937927,164.978836 255.349335,158.785278 253.034027,159.255142 
	C249.967621,159.877426 242.977142,166.036240 242.653717,169.071091 
	C245.771713,167.424072 248.550476,165.956253 252.082047,164.090759 
	C252.082047,166.621078 252.081985,168.390823 252.082031,170.160568 
	C252.082413,183.140549 252.045135,196.120773 252.130630,209.100204 
	C252.141403,210.735794 252.798111,212.367126 253.155563,214.000443 
	C253.920074,213.913132 254.684601,213.825806 255.449112,213.738495 
	C255.449112,199.713928 255.449112,185.689377 255.451248,170.718445 
M306.057312,153.575455 
	C291.053497,159.862564 279.142120,177.841095 282.934235,186.905579 
	C286.391510,180.238449 289.231049,172.875229 293.690399,166.677475 
	C298.442596,160.072708 305.795471,156.436874 314.248993,153.917938 
	C313.935699,157.465240 313.706055,160.065628 313.421478,163.287674 
	C316.477020,161.078827 319.970978,152.059921 318.561951,150.112518 
	C316.017639,146.595932 313.352386,142.913467 308.589355,141.797821 
	C308.914307,143.583313 309.802399,144.810699 310.748596,145.991516 
	C311.725891,147.211090 312.759644,148.385422 314.030518,149.889404 
	C311.209839,151.176346 308.961365,152.202194 306.057312,153.575455 
M204.630539,143.253586 
	C203.693146,142.869812 202.275726,141.895432 201.899048,142.201553 
	C199.975128,143.765228 198.285843,145.627502 196.577927,147.444962 
	C193.315414,150.916733 194.814865,159.968430 199.834427,163.112518 
	C199.489502,159.870956 199.201584,157.165024 198.840622,153.772644 
	C207.451920,156.528595 214.825241,160.137390 219.534470,166.650360 
	C224.006195,172.834885 226.777878,180.248596 230.297119,187.121811 
	C231.010101,184.852844 230.999008,182.558502 230.459671,180.395905 
	C226.365021,163.977600 213.844009,155.929688 198.999130,149.858185 
	C201.037506,147.548721 202.672028,145.696823 204.630539,143.253586 
M193.839111,170.199799 
	C193.676926,167.143707 192.190536,167.924545 190.798828,169.261505 
	C188.759293,171.220840 186.729523,173.220535 184.942383,175.404953 
	C182.592041,178.277817 185.051453,187.418716 189.364853,189.848541 
	C188.862122,186.416107 188.439774,183.532639 187.928574,180.042389 
	C196.618393,182.947571 203.940811,186.881470 208.869232,193.491974 
	C213.521759,199.732422 216.759857,207.027405 220.620148,213.858505 
	C221.063690,213.728958 221.507233,213.599411 221.950775,213.469864 
	C221.260376,210.763977 220.812744,207.967224 219.839371,205.367294 
	C214.381668,190.789673 203.049194,182.290970 188.612427,176.475479 
	C190.525925,174.275345 192.018997,172.558609 193.839111,170.199799 
M318.509613,182.768845 
	C320.426971,182.053802 322.344330,181.338776 324.863708,180.399231 
	C324.612427,184.016769 324.422699,186.748444 324.232971,189.480103 
	C324.970917,189.619904 325.708832,189.759705 326.446747,189.899506 
	C327.445251,185.613007 329.932587,180.974396 329.025421,177.138580 
	C328.110260,173.268997 324.070160,169.906189 319.990326,167.998032 
	C319.589722,168.360443 319.189148,168.722870 318.788544,169.085281 
	C320.518036,171.465408 322.247528,173.845535 323.441589,175.488861 
	C316.232361,180.693985 308.749603,185.130768 302.482117,190.890106 
	C296.058075,196.793320 292.285889,204.613220 292.243774,213.703934 
	C295.860199,208.110321 297.944916,201.502029 302.007507,196.500290 
	C306.291412,191.226120 312.463348,187.485474 318.509613,182.768845 
z" />
    <path fill="#FAF0C9" opacity="1.000000" stroke="none" d="
M387.905914,418.100342 
	C383.283936,418.612000 378.661957,419.123657 373.220490,419.726013 
	C376.239685,424.920349 378.468384,428.754669 381.259003,433.555786 
	C379.311798,433.274994 378.772308,433.364044 378.512573,433.135345 
	C372.227478,427.600891 372.049896,427.536194 365.969269,433.609741 
	C361.963959,437.610413 357.808563,441.551392 354.427734,446.050659 
	C352.590393,448.495819 352.231659,452.052032 351.115417,455.376801 
	C348.405273,455.806152 344.362091,455.320038 342.213226,457.109161 
	C340.132019,458.841980 339.999054,462.914734 338.730713,466.821320 
	C337.176117,465.409058 335.332031,464.154785 334.047760,462.473053 
	C331.871918,459.623779 329.462708,458.406433 325.859436,459.519318 
	C322.529572,460.547760 319.034485,461.043488 315.710022,462.085938 
	C314.437256,462.485046 312.626770,463.606873 312.444305,464.642914 
	C311.402527,470.558197 307.983948,467.983154 305.028809,466.941010 
	C299.437439,464.969238 293.827118,461.156036 288.317505,461.315491 
	C281.024506,461.526581 274.191254,460.223633 267.211395,459.122925 
	C251.354630,456.622314 235.639938,458.770660 219.901871,460.371307 
	C218.942947,460.468842 217.977661,460.503876 216.771454,460.584259 
	C216.463898,458.958588 216.193237,457.527954 216.040863,456.722473 
	C213.165329,455.672211 210.523621,455.029877 208.192230,453.799530 
	C198.473145,448.670410 188.886932,443.288940 179.149323,438.196289 
	C177.485458,437.326080 175.332184,437.199921 173.385483,437.096130 
	C165.861969,436.695129 158.890228,434.685822 153.053223,429.819733 
	C148.715591,426.203674 143.907257,424.754425 138.323700,424.748077 
	C118.951691,424.726074 108.772469,416.555145 103.921860,397.566711 
	C102.940170,393.723663 102.816292,388.199890 100.261635,386.487762 
	C91.778381,380.802246 91.421669,371.408844 87.898422,363.524017 
	C80.493774,346.952911 73.097443,330.362274 66.386879,313.505310 
	C64.001701,307.513763 63.614555,300.726807 62.185585,293.661560 
	C69.566513,293.536804 69.165985,289.961060 68.302238,285.485901 
	C65.559418,271.275085 60.499252,257.939117 53.630516,245.281830 
	C51.699799,241.724030 51.009113,238.397812 51.807285,234.364227 
	C54.616577,220.167358 56.761681,205.832001 59.839195,191.697327 
	C62.772644,178.224335 70.620537,167.511337 80.717026,158.332947 
	C85.401047,154.074844 90.416183,150.046631 94.399925,145.191147 
	C98.216133,140.539841 100.906738,134.961716 104.060791,129.771912 
	C105.600258,127.238838 106.615974,124.209244 108.645660,122.182388 
	C118.782715,112.059517 129.323471,102.339821 139.421967,92.179855 
	C144.730774,86.838722 150.703308,84.800529 157.963623,86.287071 
	C163.004608,87.319206 166.268448,86.393456 169.082626,81.070625 
	C173.837280,72.077499 181.604141,67.331673 192.565186,68.441643 
	C195.278427,68.716393 198.579742,66.214241 201.130646,64.336403 
	C204.763916,61.661800 207.953842,58.384918 211.333145,55.365311 
	C211.824570,55.636948 212.315979,55.908585 212.807404,56.180222 
	C212.979660,58.692730 213.151901,61.205238 213.354507,64.160446 
	C214.398758,63.631817 215.304077,63.123943 216.248199,62.703106 
	C228.234787,57.360138 240.129837,51.785702 252.313065,46.935547 
	C254.349701,46.124767 257.782715,48.188107 260.322174,49.430851 
	C263.658051,51.063351 266.747711,53.198944 270.976624,55.738834 
	C270.976624,56.383091 271.025543,58.350117 270.967407,60.313976 
	C270.793427,66.190269 268.825592,68.678192 262.995392,69.098427 
	C256.371674,69.575851 249.695389,69.276497 243.058289,69.625443 
	C223.435776,70.657097 205.770508,77.765694 189.051514,87.550438 
	C177.698120,94.194969 165.566437,99.932365 155.405228,108.095085 
	C138.940125,121.321846 123.390236,135.798416 110.808609,153.039902 
	C100.399391,167.304367 93.672180,183.183289 91.259399,200.633652 
	C89.093498,216.298477 87.822365,232.085648 86.005753,247.801422 
	C85.685997,250.567719 85.227020,253.631119 83.789459,255.895142 
	C79.789970,262.193939 79.951714,268.695251 81.263908,275.612366 
	C82.502403,282.140991 83.231400,288.766266 84.230850,295.669067 
	C80.683868,296.369629 77.546669,297.458527 79.463921,302.005066 
	C80.723045,304.990906 82.349930,307.040253 86.053795,304.023315 
	C88.405579,309.674988 90.814224,314.795013 92.685814,320.104340 
	C96.248161,330.210052 101.844421,338.937439 109.519363,346.355927 
	C129.043900,365.228027 148.556747,384.112671 168.205383,402.854797 
	C169.378326,403.973602 171.740463,404.371429 173.483368,404.238861 
	C175.863785,404.057800 178.180939,403.045105 181.864426,402.014069 
	C180.115784,404.747101 178.977722,406.525818 177.603165,408.674164 
	C188.360779,416.012360 200.491394,419.473145 213.605423,421.005035 
	C228.954071,422.797943 244.169830,425.724457 259.448578,428.125336 
	C261.226624,428.404755 263.089172,428.821442 264.825989,428.571960 
	C272.558899,427.461060 280.309387,426.362335 287.944031,424.743134 
	C290.315155,424.240265 292.824707,422.518982 294.415588,420.633759 
	C296.996826,417.574951 298.872406,413.920624 301.172211,410.319916 
	C302.159546,411.534058 303.577362,413.277557 305.258484,415.344849 
	C307.683563,413.399323 310.086548,411.471558 312.946350,409.177246 
	C312.969452,409.195007 313.675781,409.737915 313.673645,409.736267 
	C316.645020,408.609589 319.097351,407.610901 321.606476,406.784546 
	C322.127625,406.612915 323.285248,406.911163 323.431152,407.278351 
	C326.549408,415.124786 329.558014,408.290894 332.617676,407.268860 
	C339.292145,411.931854 339.478973,412.194031 346.339722,407.304962 
	C368.990540,391.163757 391.496826,374.819733 414.048950,358.540192 
	C416.059387,357.088989 417.999878,355.540924 420.207550,353.859070 
	C420.773438,355.004059 421.178619,355.823883 420.970093,355.401917 
	C423.104706,354.277557 425.332886,353.304291 427.331848,351.984070 
	C428.790863,351.020447 430.060028,349.697449 431.219818,348.365692 
	C435.636719,343.293884 439.974884,338.153473 444.342468,333.038696 
	C444.891876,333.414154 445.441284,333.789612 445.990723,334.165070 
	C444.197510,338.553101 442.481934,342.974762 440.597748,347.323364 
	C432.325745,366.414948 421.543488,383.930298 407.860199,399.656219 
	C406.433563,401.295776 405.466003,403.590057 404.974915,405.738159 
	C403.738342,411.146851 401.851257,412.817383 396.035217,413.073120 
	C392.806793,413.215057 389.057251,412.573456 388.061218,417.623932 
	C387.974335,418.030640 387.905914,418.100342 387.905914,418.100342 
M91.934845,329.415405 
	C92.033386,329.433594 92.131927,329.451752 92.230476,329.469910 
	C92.161613,329.306976 92.092751,329.144073 91.879524,328.271942 
	C89.861534,323.826691 87.843536,319.381409 85.825539,314.936157 
	C85.408813,315.140594 84.992088,315.345062 84.575363,315.549530 
	C85.414818,318.847229 85.882957,322.309784 87.244385,325.375702 
	C87.966667,327.002350 90.239380,327.940521 91.934845,329.415405 
z" />
    <path fill="#FAF0C9" opacity="1.000000" stroke="none" d="
M451.084351,179.780182 
	C452.561218,193.938644 453.989624,207.653397 455.512634,222.276657 
	C457.530304,220.092911 459.285706,218.193039 461.509033,215.786697 
	C458.924286,228.873001 456.489288,241.201065 454.054291,253.529129 
	C453.611694,253.484299 453.169098,253.439484 452.726532,253.394653 
	C453.318848,245.634262 453.911163,237.873886 454.526581,229.810760 
	C449.868042,232.250275 448.581146,229.971588 448.179749,225.821915 
	C448.040009,224.377213 446.911072,222.937225 445.988495,221.674377 
	C440.922577,214.740021 435.629120,207.964691 430.787872,200.879181 
	C429.779053,199.402695 429.857910,196.745941 430.269012,194.810120 
	C432.335236,185.080307 430.600922,177.067368 421.487762,171.467957 
	C414.806000,167.362473 413.419983,159.851303 411.196045,153.144989 
	C409.700043,148.633911 409.308411,143.756592 408.392853,138.884262 
	C408.393188,138.884354 407.971741,138.616287 407.805389,138.728027 
	C400.446899,143.669968 394.626190,140.881927 388.025391,136.211884 
	C367.233551,121.501633 346.032379,107.363449 324.799469,93.290741 
	C321.944733,91.398682 318.058563,90.672913 314.547058,90.237679 
	C305.388245,89.102501 296.974731,86.534836 290.239990,79.859634 
	C287.279388,76.925201 285.828888,73.463852 287.448761,69.445839 
	C289.070831,65.422356 292.466522,63.900272 296.687714,63.970760 
	C298.852356,64.006912 301.081177,63.613689 303.168884,64.008049 
	C306.020477,64.546707 308.098022,64.195717 309.917419,61.658424 
	C310.642029,60.647900 312.466461,60.051807 313.845154,59.939098 
	C351.323456,56.875259 382.478424,70.343491 406.346588,98.583107 
	C417.630829,111.934044 425.490234,128.180618 434.891632,143.121368 
	C437.818939,147.773438 440.406982,152.676453 443.696106,157.054611 
	C448.710907,163.729797 450.979492,171.122208 451.084351,179.780182 
z" />
    <path fill="#F9EABF" opacity="1.000000" stroke="none" d="
M246.989685,257.131073 
	C232.497162,257.132568 218.501022,257.236572 204.508179,257.067810 
	C200.635635,257.021088 199.214767,258.252594 199.282516,262.218018 
	C199.481674,273.877014 199.462402,285.543182 199.292923,297.203125 
	C199.238312,300.960205 200.641602,302.241241 204.282425,302.020203 
	C208.100174,301.788422 211.945282,301.898285 215.773926,302.011597 
	C217.202682,302.053925 218.618668,302.527771 220.040466,302.804840 
	C220.041519,303.356262 220.042587,303.907654 220.043640,304.459045 
	C218.607773,304.752930 217.176804,305.268372 215.735138,305.300232 
	C210.905960,305.406860 206.065048,305.170624 201.243881,305.394379 
	C197.359985,305.574585 195.985550,304.145233 196.045380,300.201630 
	C196.237442,287.542511 195.999466,274.876984 196.182983,262.217621 
	C196.238174,258.409302 195.222595,256.795868 191.148285,257.042175 
	C185.889038,257.360107 180.596039,257.119659 174.185410,257.119659 
	C175.469315,254.582596 176.048370,252.937912 177.028656,251.583679 
	C182.790665,243.623795 188.466370,235.587738 194.600052,227.920456 
	C196.085709,226.063354 199.180771,224.501541 201.545319,224.488129 
	C239.030457,224.275406 276.517303,224.292908 314.002960,224.452164 
	C316.151245,224.461288 319.132202,225.533295 320.296173,227.143784 
	C326.340820,235.507080 331.938049,244.194794 337.638458,252.804337 
	C338.235443,253.706024 338.486664,254.836624 339.047028,256.231049 
	C337.790131,256.588684 336.898682,257.054535 336.002380,257.064026 
	C328.403503,257.144348 320.792999,257.365845 313.211700,257.005310 
	C311.325012,256.915558 308.969360,255.270615 307.794006,253.643600 
	C303.060547,247.091263 298.705048,240.265915 293.441742,232.392334 
	C293.162384,235.034058 292.921875,236.256638 292.920410,237.479507 
	C292.896820,257.305603 292.992493,277.132416 292.827484,296.957153 
	C292.795013,300.860535 293.933411,302.328430 297.917511,302.040222 
	C302.226776,301.728485 306.584839,301.796509 310.904816,302.021423 
	C314.263916,302.196320 315.233795,300.815491 315.144897,297.646179 
	C314.972168,291.486694 315.040863,285.317871 315.139648,279.154999 
	C315.165710,277.528168 315.667114,275.908936 315.950226,274.286194 
	C316.455688,274.259705 316.961121,274.233215 317.466583,274.206696 
	C317.823822,275.473236 318.473969,276.736023 318.490265,278.006927 
	C318.588501,285.669464 318.473175,293.334778 318.575806,300.997192 
	C318.618866,304.214203 317.272736,305.385101 314.090485,305.374603 
	C289.599823,305.293701 265.108826,305.327057 240.618057,305.277405 
	C239.223999,305.274597 237.830795,304.854767 236.437180,304.628998 
	C236.371719,304.083710 236.306259,303.538452 236.240799,302.993164 
	C237.887131,302.652924 239.531891,302.026489 241.180054,302.017334 
	C255.341125,301.938629 269.502808,301.971436 283.664307,301.971008 
	C285.462891,301.970947 287.261475,301.971008 289.463165,301.971008 
	C289.463165,278.620056 289.463165,255.784866 289.463165,231.386627 
	C284.036285,238.669739 279.427368,244.853760 274.820251,251.039139 
	C273.725891,252.508392 272.819824,254.184601 271.485168,255.385590 
	C270.534821,256.240753 269.011475,256.459106 267.213348,255.967148 
	C273.800018,246.983795 280.386719,238.000458 287.651184,228.092667 
	C284.715210,227.909317 282.982361,227.708206 281.249390,227.706848 
	C255.425476,227.686661 229.601028,227.774765 203.778214,227.606583 
	C199.800430,227.580673 197.364349,228.898590 195.155624,232.132843 
	C190.379868,239.126022 185.207581,245.848419 179.280563,253.932144 
	C189.342331,253.932144 198.186203,253.932144 207.030075,253.932144 
	C216.193405,253.932144 225.356827,253.905090 234.520020,253.939926 
	C243.287186,253.973236 252.054092,254.070877 260.821136,254.140244 
	C260.824371,255.022888 260.827637,255.905533 260.830902,256.788177 
	C256.383026,256.902313 251.935165,257.016418 246.989685,257.131073 
M314.156464,253.918106 
	C320.568024,253.918106 326.979584,253.918106 334.672119,253.918106 
	C328.616425,244.964081 323.274628,237.025406 317.859375,229.137177 
	C317.439697,228.525879 316.509155,227.912018 315.807739,227.902359 
	C309.090118,227.809708 302.370697,227.846970 294.341949,227.846970 
	C300.555511,237.024857 306.003387,245.103302 311.519348,253.134979 
	C311.824341,253.579041 312.693848,253.635422 314.156464,253.918106 
z" />
    <path fill="#F9E8BC" opacity="1.000000" stroke="none" d="
M255.450180,171.191620 
	C255.449112,185.689377 255.449112,199.713928 255.449112,213.738495 
	C254.684601,213.825806 253.920074,213.913132 253.155563,214.000443 
	C252.798111,212.367126 252.141403,210.735794 252.130630,209.100204 
	C252.045135,196.120773 252.082413,183.140549 252.082031,170.160568 
	C252.081985,168.390823 252.082047,166.621078 252.082047,164.090759 
	C248.550476,165.956253 245.771713,167.424072 242.653717,169.071091 
	C242.977142,166.036240 249.967621,159.877426 253.034027,159.255142 
	C255.349335,158.785278 263.937927,164.978836 265.557587,169.166000 
	C262.116516,167.534042 259.495941,166.291199 256.128326,164.694077 
	C255.867050,167.018845 255.659149,168.868652 255.450180,171.191620 
z" />
    <path fill="#F9E8BC" opacity="1.000000" stroke="none" d="
M306.385132,153.401764 
	C308.961365,152.202194 311.209839,151.176346 314.030518,149.889404 
	C312.759644,148.385422 311.725891,147.211090 310.748596,145.991516 
	C309.802399,144.810699 308.914307,143.583313 308.589355,141.797821 
	C313.352386,142.913467 316.017639,146.595932 318.561951,150.112518 
	C319.970978,152.059921 316.477020,161.078827 313.421478,163.287674 
	C313.706055,160.065628 313.935699,157.465240 314.248993,153.917938 
	C305.795471,156.436874 298.442596,160.072708 293.690399,166.677475 
	C289.231049,172.875229 286.391510,180.238449 282.934235,186.905579 
	C279.142120,177.841095 291.053497,159.862564 306.385132,153.401764 
z" />
    <path fill="#F9E8BD" opacity="1.000000" stroke="none" d="
M204.468536,143.549255 
	C202.672028,145.696823 201.037506,147.548721 198.999130,149.858185 
	C213.844009,155.929688 226.365021,163.977600 230.459671,180.395905 
	C230.999008,182.558502 231.010101,184.852844 230.297119,187.121811 
	C226.777878,180.248596 224.006195,172.834885 219.534470,166.650360 
	C214.825241,160.137390 207.451920,156.528595 198.840622,153.772644 
	C199.201584,157.165024 199.489502,159.870956 199.834427,163.112518 
	C194.814865,159.968430 193.315414,150.916733 196.577927,147.444962 
	C198.285843,145.627502 199.975128,143.765228 201.899048,142.201553 
	C202.275726,141.895432 203.693146,142.869812 204.468536,143.549255 
z" />
    <path fill="#F9E9BE" opacity="1.000000" stroke="none" d="
M193.675598,170.520844 
	C192.018997,172.558609 190.525925,174.275345 188.612427,176.475479 
	C203.049194,182.290970 214.381668,190.789673 219.839371,205.367294 
	C220.812744,207.967224 221.260376,210.763977 221.950775,213.469864 
	C221.507233,213.599411 221.063690,213.728958 220.620148,213.858505 
	C216.759857,207.027405 213.521759,199.732422 208.869232,193.491974 
	C203.940811,186.881470 196.618393,182.947571 187.928574,180.042389 
	C188.439774,183.532639 188.862122,186.416107 189.364853,189.848541 
	C185.051453,187.418716 182.592041,178.277817 184.942383,175.404953 
	C186.729523,173.220535 188.759293,171.220840 190.798828,169.261505 
	C192.190536,167.924545 193.676926,167.143707 193.675598,170.520844 
z" />
    <path fill="#F9E9BE" opacity="1.000000" stroke="none" d="
M318.160004,182.921844 
	C312.463348,187.485474 306.291412,191.226120 302.007507,196.500290 
	C297.944916,201.502029 295.860199,208.110321 292.243774,213.703934 
	C292.285889,204.613220 296.058075,196.793320 302.482117,190.890106 
	C308.749603,185.130768 316.232361,180.693985 323.441589,175.488861 
	C322.247528,173.845535 320.518036,171.465408 318.788544,169.085281 
	C319.189148,168.722870 319.589722,168.360443 319.990326,167.998032 
	C324.070160,169.906189 328.110260,173.268997 329.025421,177.138580 
	C329.932587,180.974396 327.445251,185.613007 326.446747,189.899506 
	C325.708832,189.759705 324.970917,189.619904 324.232971,189.480103 
	C324.422699,186.748444 324.612427,184.016769 324.863708,180.399231 
	C322.344330,181.338776 320.426971,182.053802 318.160004,182.921844 
z" />
    <path fill="#FAF0C9" opacity="1.000000" stroke="none" d="
M388.009399,417.996643 
	C388.136719,418.131500 388.229004,418.300323 388.321289,418.469177 
	C388.209900,418.441772 388.098480,418.414368 387.946503,418.243652 
	C387.905914,418.100342 387.974335,418.030640 388.009399,417.996643 
z" />
    <path fill="#F3B05A" opacity="1.000000" stroke="none" d="
M91.812195,329.189484 
	C90.239380,327.940521 87.966667,327.002350 87.244385,325.375702 
	C85.882957,322.309784 85.414818,318.847229 84.575363,315.549530 
	C84.992088,315.345062 85.408813,315.140594 85.825539,314.936157 
	C87.843536,319.381409 89.861534,323.826691 91.898621,328.678467 
	C91.917709,329.084991 91.812195,329.189484 91.812195,329.189484 
z" />
    <path fill="#F3B05A" opacity="1.000000" stroke="none" d="
M91.970795,329.033081 
	C92.092751,329.144073 92.161613,329.306976 92.230469,329.469910 
	C92.131927,329.451752 92.033386,329.433594 91.873520,329.302429 
	C91.812195,329.189484 91.917709,329.084991 91.970795,329.033081 
z" />
    <path fill="#F2A344" opacity="1.000000" stroke="none" d="
M313.728516,253.895187 
	C312.693848,253.635422 311.824341,253.579041 311.519348,253.134979 
	C306.003387,245.103302 300.555511,237.024857 294.341949,227.846970 
	C302.370697,227.846970 309.090118,227.809708 315.807739,227.902359 
	C316.509155,227.912018 317.439697,228.525879 317.859375,229.137177 
	C323.274628,237.025406 328.616425,244.964081 334.672119,253.918106 
	C326.979584,253.918106 320.568024,253.918106 313.728516,253.895187 
z" />
</svg>